<?xml version="1.0" encoding="UTF-8"?><svg id="Layer_2" xmlns="http://www.w3.org/2000/svg" viewBox="0 0 2561.5 513.31"><defs><style>.cls-1,.cls-2,.cls-3,.cls-4{stroke-miterlimit:10;}.cls-1,.cls-3{stroke:#f7931e;}.cls-2{stroke:#4d4d4d;}.cls-2,.cls-4{fill:#fbb03b;}.cls-3{stroke-width:2px;}.cls-5{fill:#f7931e;}.cls-4{stroke:#333;}</style></defs><g id="Layer_1-2"><path class="cls-1" d="M1802.72,221.83l-1.4,34.75c-.15.09-.08.11-.15.09-14.4-3.54-24.01-9.96-24.01-17.3s10.25-14.17,25.42-17.64c.08-.02.16.03.15.1Z"/><path class="cls-1" d="M1869.1,236.13l-57.99-15.19c-.12-.03-.14-.17-.02-.19,6.04-.88,23.01-1.1,27.25-.87,20.06,1.12,30.42,5.85,37.28,17.79.82,1.43-3.55-.76-6.53-1.54Z"/><path class="cls-1" d="M1853.49,247.39c4-1.02,22.85-7.1,21.33-5.55-9.1,9.3-25.54,19.84-47.88,19.84-6.73,0-12.77-.6-18.62-1.58-.12-.02-.26-.68-.14-.71l45.31-12.01Z"/><path d="M1809.6,219.94c-.06.03-.11.04-.2.05v-.1l.2.05Z"/><path class="cls-5" d="M1809.4,219.89v.1c.08-.01.14-.03.2-.05l-.2-.05h0Z"/><path class="cls-3" d="M1344.87,217.34c0,26.86-36.8,49.9-110.38,69.13-49.1,12.97-107.56,22.81-175.37,29.53-.04,0-.07.02-.09.05l-32.86,47.27s-.06.05-.1.05h-98.24c-.09,0-.15-.08-.1-.14l98.37-139.43s.06-.05.1-.05h97.43c.09,0,.15.08.1.14l-46.19,65.14c-.05.07.02.16.12.15,34.81-3.99,65.67-10.2,92.6-18.62,37.6-11.88,57.12-25.72,58.56-41.51.9-10.16-5.85-16.83-20.24-20-8.64-1.91-24.2-2.86-46.69-2.86h-275.54c-.1,0-.16-.1-.08-.16l41.87-34.1s.05-.03.08-.03h277.93c40.66,0,71.69,2.54,93.11,7.62,30.4,7.17,45.61,19.78,45.61,37.83Z"/><path class="cls-3" d="M1601.17,337.81s.05,0,.07.02c28.6,17.92,21.6,22.95-13.83,22.95l-154.61-1.2c-28.97,0-43.55-4.66-43.72-13.99,0-.07-.09-.12-.16-.07-19.58,11.19-43.64,16.78-72.17,16.78-21.05,0-38.15-3.27-51.28-9.8-13.13-6.53-19.7-15.06-19.7-25.58,0-18.96,14.39-33.93,43.18-44.91,26.08-9.98,58.38-14.97,96.89-14.97h153.9c.09,0,.15.08.1.15l-50.53,70.47c-.05.06,0,.15.1.15h111.76ZM1426.93,288.82h-59.37s-.08.02-.1.05l-18.86,31.65c-1.08,2-1.62,3.81-1.62,5.44,0,7.89,15.27,11.83,45.81,11.84.04,0,.08-.02.1-.05l34.14-48.8c.04-.06-.01-.14-.1-.14Z"/><path class="cls-3" d="M1558.9,341.59l34.17-48.85c.04-.06-.01-.14-.1-.14h-43.85c-.09,0-.15-.08-.1-.15l16.86-21.59s.05-.04.08-.04c31.46-4.08,54.83-9.3,70.12-15.64,17.26-7.16,35.69-20.13,55.29-38.89.02-.02.05-.03.09-.03h52.37c.09,0,.14.08.1.14l-37.85,54.28c-.04.06.01.14.1.14h69.21c.09,0,.15.09.1.16-11.2,14.41-33.83,21.62-67.89,21.62h-17.74s-.08.02-.1.05l-33.6,48.8c-.04.06.01.14.1.14h144.53c.09,0,.15.08.11.15-8.5,14.4-27.16,19.11-66.38,19.05h-141.45"/><path class="cls-3" d="M1728.86,340.04l46.04-72.3s.06-.05.1-.05h97.7c.09,0,.15.08.1.14l-49.72,70.48c-.05.06.01.14.1.14l378.14-.32c19.8,0,62.24,20.74,39.61,21.39-11.64.33-355.36-.61-367.77-.61l-138.62,1.87"/><path class="cls-3" d="M2240.91,359.53l-254.95-.26c-1.92,0-3.61.57-4.18,1.39l-70.97,102.56c-.57.82-2.28,1.39-4.22,1.39h-88.7c-2.98,0-5.1-1.29-4.21-2.55l70.76-102.52"/><path class="cls-3" d="M1904.26,341.92l16.61-30.18c.03-.06.07-.12.11-.18,17.82-23.91,44.59-40.9,80.37-50.95,30.78-8.53,71.69-12.79,122.81-12.79,67.47,0,101.19,11.12,101.19,33.34,0,8.98-7.3,16.68-21.87,23.07-14.57,6.39-31.57,9.6-51.01,9.6s-36.07-3.18-49.93-9.54c-13.83-6.34-20.77-14.05-20.77-23.14,0-2.38.57-4.78,1.7-7.21.54-1.15-1.43-2.31-4.08-2.31-.02,0-.04,0-.05,0-9.36,0-19.44,3.13-30.21,9.4-9.9,5.71-17.65,12.29-23.23,19.73l-28.98,35.99c-1.04,1.29,1.14,2.64,4.21,2.62l206.17-1.21c1.54,0,2.98.34,3.8.92"/><path class="cls-3" d="M2201.31,339.4c0-2.54-.64-4.26,1.15-6.89l46.93-65.41s.06-.05.1-.05h97.7c.09,0,.15.08.1.15l-50.26,70.47c-.05.06,0,.15.1.15h54.52s.08-.02.1-.05l49.59-70.67s.06-.05.1-.05h97.16c.09,0,.15.08.1.14l-49.46,70.48c-.04.06.01.14.1.14h111.05c.09,0,.15.09.1.15-10.65,14.41-30.49,21.62-59.53,21.62h-65.79s-.08.02-.1.05c-15.64,21.39-32.09,37.25-49.35,47.58-24.11,14.33-54.07,21.5-89.87,21.5-22.49,0-39.85-3.31-52.09-9.93-10.62-5.81-15.92-13.29-15.92-22.45,0-7.26,3.1-14.29,9.31-21.09,6.11-6.7,14.08-11.86,23.94-15.48.11-.04.08-.17-.04-.17h-19.99M2334.59,363.41c.05-.07-.01-.15-.1-.15-11.79.04-22.75,3.42-32.85,10.14-10.17,6.76-15.25,13.49-15.25,20.21,0,5.97,5.19,10.77,15.56,14.39.05.02.12,0,.15-.04l32.49-44.55Z"/><path d="M1923.87,361.18c1.69-3.69,4.66-6.62,7.91-8.97l-2.05-2.05c-3.66,5.23-8.5,9.59-13.67,13.3-1.6,1.14-.25,3.34,1.51,2.59,5.89-2.49,11.9-5.98,15.54-11.4,1.08-1.61-1.52-3.11-2.59-1.51-3.32,4.94-9.1,8.06-14.46,10.32l1.51,2.59c5.61-4.02,10.77-8.69,14.75-14.37.84-1.2-.85-2.92-2.05-2.05-3.66,2.64-7.08,5.89-8.99,10.05-.34.74-.21,1.62.54,2.05.65.38,1.71.2,2.05-.54h0Z"/><path d="M1914.06,362.44c2.56-1.15,5.35-2.74,6.96-5.13.83-1.23.46-2.62-.85-3.3s-2.9-.67-4.29-.66c-6.65.03-13.01,1.93-19.22,4.11-1.58.56-1.34,2.87.4,2.95,6.09.27,12.18.54,18.27.81,1.93.09,1.93-2.91,0-3-6.09-.27-12.18-.54-18.27-.81l.4,2.95c4.81-1.69,9.72-3.3,14.83-3.81,1.34-.13,2.69-.21,4.03-.19.57,0,1.15.02,1.72.12.12.02.62.2.68.16.2.08.17-.06-.1-.41-.04-.46-.14-.56-.29-.29-.29.09-.81.86-1.07,1.09-.41.36-.85.69-1.3,1-1.07.72-2.21,1.3-3.39,1.83-1.76.79-.23,3.37,1.51,2.59h0Z"/><path d="M1944.45,357.95c-6.12-.78-12.24-1.55-18.37-2.33v3c16.29,1.05,32.63,1.23,48.94.54l-1.3-2.26c-.26.34-.52.67-.78,1.01-1.05,1.36,1.2,3.04,2.36,1.82,1.36-1.44,2.72-2.88,4.08-4.32s-.79-3.53-2.12-2.12-2.72,2.88-4.08,4.32l2.36,1.82c.26-.34.52-.67.78-1.01.7-.91-.25-2.3-1.3-2.26-16.31.69-32.65.52-48.94-.54-1.97-.13-1.86,2.76,0,3,6.12.78,12.24,1.55,18.37,2.33,1.91.24,1.89-2.76,0-3h0Z"/><path d="M1904.47,343.63c1.61-.06,3.22-.03,4.82.06.78.05,1.53-.72,1.5-1.5-.04-.85-.66-1.45-1.5-1.5-1.61-.1-3.22-.12-4.82-.06-.78.03-1.54.67-1.5,1.5s.66,1.53,1.5,1.5h0Z"/><path d="M1903.02,340.61c-.32,0-.46-.01-.75-.12l-.4,2.95c2.92.11,5.84.23,8.76.34,1.65.06,2.09-2.69.4-2.95-2.05-.31-4.09-.29-6.16-.22-1.92.07-1.94,3.03,0,3,2.33-.04,4.66-.17,6.98-.38,1.9-.18,1.95-2.9,0-3-2.9-.15-5.8,0-8.7.15s-5.87.29-8.81.43c-1.92.09-1.93,3.09,0,3,2.94-.14,5.87-.29,8.81-.43s5.8-.3,8.7-.15v-3c-2.32.21-4.65.34-6.98.38v3c1.78-.06,3.59-.15,5.36.11l.4-2.95c-2.92-.11-5.84-.23-8.76-.34-1.77-.07-1.92,2.4-.4,2.95.5.18,1.02.23,1.55.23,1.93-.02,1.93-3.02,0-3h0Z"/><path d="M1894.57,356.06c-.71.82-1.4,1.66-2.07,2.51h2.12c-1.49-1.92-4.3-2.69-6.58-3.06-1.87-.3-2.68,2.31-.8,2.89.48.15,1.23.24,1.63.53l-.69-1.69-.02.14.39-.66c-.79.91-.84,2,.04,2.88l1.46-2.51c-.43-.06-.89-.13-1.26-.4-.41-.3-.7-.77-1.09-1.09-.9-.74-2.02-1.15-3.12-1.49-2.3-.72-4.66-1.28-7.07-1.43-1.93-.12-1.92,2.88,0,3,2.23.14,4.46.72,6.58,1.42.44.14.87.3,1.27.52.45.25.73.62,1.09.98.77.77,1.73,1.23,2.81,1.38,1.38.19,2.63-1.35,1.46-2.51l-.2-.19.39.66-.06-.21-.15,1.16c.11-.25.33-.52.38-.85.12-.73-.1-1.26-.69-1.69-.64-.46-1.6-.6-2.34-.83l-.8,2.89c1.81.29,4.06.75,5.26,2.28.46.59,1.66.58,2.12,0,.67-.85,1.36-1.69,2.07-2.51,1.26-1.46-.86-3.59-2.12-2.12h0Z"/><path d="M1559.21,342.98h2.14c.66-.01,1.36.04,2.01-.11,1.68-.41,1.97-2.65.2-3.19-.58-.18-1.24-.14-1.84-.14-.73,0-1.46.01-2.19.03-1.45.04-2.9.13-4.35.25-.81.07-1.5.64-1.5,1.5,0,.76.69,1.56,1.5,1.5,4.76-.37,9.53-.75,14.29-1.15.81-.07,1.5-.64,1.5-1.5,0-.76-.69-1.57-1.5-1.5-4.76.4-9.52.78-14.29,1.15v3c1.36-.12,2.72-.2,4.08-.24.64-.02,1.28-.03,1.92-.04.51,0,1.29-.08,1.66.05l-.66-.39.07.07-.44-1.06v.07c.14-.35.29-.71.44-1.06l-.07.06.66-.39c-.39.15-.96.08-1.48.08h-2.14c-1.93.02-1.93,3.02,0,3.01h0Z"/><polygon class="cls-2" points=".5 494.99 70.24 495.17 .5 512.67 .5 494.99"/><path class="cls-2" d="M398.53,224.82c-1.64,23.5-24.02,44.06-67.14,61.67-30.85,12.53-66.38,21.78-106.34,27.76l53.23-97.29h-112.03L.5,459.85V190.75l321.41.08c25.67,0,43.5,1.47,53.48,4.26,16.44,4.75,24.15,14.66,23.14,29.73Z"/><path class="cls-2" d="M17.32,139.89l-16.82-.44V.67l507.15,153.66c3.11,1-9.88-2.99-63.2-9.56-16.06-1.98-51.49-4.88-71.84-4.88H17.32Z"/><path class="cls-4" d="M797.7,255.89L127.82,471.02l76.24-117.76c77.63-9.99,144.65-24.57,201.04-43.89,84.21-28.58,121.53-74.95,128.79-92.2,5.22-12.4,6.46-26.42,8.07-36.85.64-4.14,5.54-9.56,11.3-7.71l244.43,83.28Z"/></g></svg>