<?xml version="1.0" encoding="UTF-8"?><svg id="Layer_2" xmlns="http://www.w3.org/2000/svg" viewBox="0 0 998.39 311.96"><defs><style>.cls-1,.cls-2,.cls-3,.cls-4{stroke-miterlimit:10;}.cls-1,.cls-3{stroke:#f7931e;}.cls-2{stroke:#4d4d4d;}.cls-2,.cls-4{fill:#fbb03b;}.cls-3{stroke-width:2px;}.cls-5{fill:#f7931e;}.cls-4{stroke:#333;}</style></defs><g id="Layer_1-2"><path class="cls-1" d="M702.31,134.88l-.55,21.07c-.06.05-.03.07-.06.05-5.61-2.15-9.35-6.04-9.35-10.49s3.99-8.59,9.9-10.7c.03-.01.06.02.06.06Z"/><path class="cls-1" d="M728.15,143.55l-22.58-9.21s-.05-.1,0-.11c2.35-.53,8.96-.67,10.61-.53,7.81.68,11.84,3.55,14.52,10.78.32.87-1.38-.46-2.54-.93Z"/><path class="cls-1" d="M722.08,150.38c1.56-.62,8.9-4.31,8.31-3.36-3.54,5.64-9.94,12.03-18.64,12.03-2.62,0-4.97-.36-7.25-.96-.05-.01-.1-.41-.05-.43l17.64-7.28Z"/><path d="M704.98,133.73s-.04.02-.08.03v-.06l.08.03Z"/><path class="cls-5" d="M704.91,133.7v.06s.06-.02.08-.03l-.08-.03h0Z"/><path class="cls-3" d="M524.02,132.16c0,16.28-14.33,30.25-42.98,41.92-19.12,7.87-41.88,13.83-68.29,17.9-.01,0-.03.01-.03.03l-12.8,28.66s-.02.03-.04.03h-38.25s-.06-.05-.04-.09l38.31-84.54s.02-.03.04-.03h37.94s.06.05.04.09l-17.99,39.5s0,.09.05.09c13.55-2.42,25.57-6.18,36.06-11.29,14.64-7.21,22.24-15.59,22.81-25.17.35-6.16-2.28-10.2-7.88-12.13-3.36-1.16-9.42-1.73-18.18-1.73h-107.3s-.06-.06-.03-.1l16.3-20.68s.02-.02.03-.02h108.23c15.83,0,27.92,1.54,36.26,4.62,11.84,4.35,17.76,11.99,17.76,22.94Z"/><path class="cls-3" d="M623.82,205.21s.02,0,.03.01c11.14,10.87,8.41,13.92-5.39,13.92l-60.21-.73c-11.28,0-16.96-2.83-17.02-8.48,0-.04-.04-.07-.06-.05-7.63,6.78-16.99,10.18-28.1,10.18-8.2,0-14.86-1.98-19.97-5.94-5.11-3.96-7.67-9.13-7.67-15.51,0-11.5,5.61-20.57,16.82-27.23,10.16-6.05,22.74-9.08,37.73-9.08h59.93s.06.05.04.09l-19.68,42.73s0,.09.04.09h43.52ZM555.97,175.5h-23.12s-.03.01-.04.03l-7.34,19.19c-.42,1.21-.63,2.31-.63,3.3,0,4.78,5.94,7.18,17.84,7.18.02,0,.03-.01.04-.03l13.29-29.59s0-.09-.04-.09Z"/><path class="cls-3" d="M607.36,207.49l13.31-29.62s0-.09-.04-.09h-17.07s-.06-.05-.04-.09l6.56-13.09s.02-.02.03-.03c12.25-2.47,21.35-5.64,27.3-9.48,6.72-4.34,13.9-12.2,21.53-23.58,0-.01.02-.02.03-.02h20.39s.06.05.04.09l-14.74,32.91s0,.09.04.09h26.95s.06.05.04.09c-4.36,8.74-13.17,13.11-26.44,13.11h-6.91s-.03.01-.04.03l-13.09,29.59s0,.09.04.09h56.28s.06.05.04.09c-3.31,8.73-10.58,11.59-25.85,11.55h-55.08"/><path class="cls-3" d="M673.54,206.56l17.93-43.84s.02-.03.04-.03h38.04s.06.05.04.09l-19.36,42.73s0,.09.04.09l147.25-.19c7.71,0,24.24,12.58,15.42,12.97-4.53.2-138.38-.37-143.22-.37l-53.98,1.14"/><path class="cls-3" d="M872.94,218.37l-99.28-.16c-.75,0-1.41.34-1.63.84l-27.64,62.19c-.22.5-.89.84-1.64.84h-34.54c-1.16,0-1.99-.78-1.64-1.55l27.55-62.16"/><path class="cls-3" d="M741.85,207.69l6.47-18.3s.03-.07.04-.11c6.94-14.5,17.36-24.8,31.3-30.89,11.99-5.17,27.92-7.76,47.82-7.76,26.27,0,39.41,6.74,39.41,20.21,0,5.45-2.84,10.11-8.52,13.99-5.67,3.87-12.29,5.82-19.86,5.82s-14.05-1.93-19.44-5.78c-5.39-3.84-8.09-8.52-8.09-14.03,0-1.44.22-2.9.66-4.37.21-.7-.56-1.4-1.59-1.4,0,0-.01,0-.02,0-3.65,0-7.57,1.9-11.77,5.7-3.86,3.46-6.87,7.45-9.04,11.96l-11.28,21.82c-.4.78.44,1.6,1.64,1.59l80.28-.73c.6,0,1.16.21,1.48.56"/><path class="cls-3" d="M857.52,206.17c0-1.54-.25-2.58.45-4.18l18.27-39.66s.02-.03.04-.03h38.04s.06.05.04.09l-19.57,42.73s0,.09.04.09h21.23s.03-.01.04-.03l19.31-42.85s.02-.03.04-.03h37.83s.06.05.04.09l-19.26,42.73s0,.09.04.09h43.24s.06.05.04.09c-4.15,8.74-11.87,13.11-23.18,13.11h-25.62s-.03.01-.04.03c-6.09,12.97-12.5,22.59-19.22,28.85-9.39,8.69-21.06,13.04-35,13.04-8.76,0-15.52-2.01-20.28-6.02-4.14-3.52-6.2-8.06-6.2-13.61,0-4.4,1.21-8.66,3.63-12.79,2.38-4.06,5.48-7.19,9.32-9.38.04-.03.03-.11-.02-.11h-7.78M909.42,220.73s0-.09-.04-.09c-4.59.02-8.86,2.07-12.79,6.15-3.96,4.1-5.94,8.18-5.94,12.25,0,3.62,2.02,6.53,6.06,8.73.02.01.05,0,.06-.02l12.65-27.01Z"/><path d="M750.42,219.32c.08-.26.16-.52.25-.78.04-.11.08-.21.12-.32.04-.1.12-.29.03-.09.21-.49.45-.97.72-1.44s.55-.9.85-1.33c.07-.1.14-.2.22-.3.29-.38-.18.21.13-.16.19-.23.38-.46.58-.69l-2.36-1.82c-.66,1.48-1.45,2.9-2.34,4.26-.45.69-.93,1.36-1.43,2.01.1-.13,0,0-.05.06-.06.08-.13.16-.19.24-.13.16-.26.32-.39.47-.3.36-.6.7-.91,1.05-.5.56-.59,1.36-.12,1.97.43.56,1.31.8,1.94.39,2.68-1.76,5.09-4.14,6.38-7.12.31-.72.24-1.64-.54-2.05-.65-.34-1.72-.23-2.05.54-.26.61-.57,1.19-.93,1.75-.18.29-.38.57-.58.84-.08.11-.09.12,0,0-.05.07-.11.14-.16.2-.13.15-.25.3-.39.45-.48.54-1,1.05-1.55,1.53-.14.12-.28.24-.43.36-.02.02-.23.19-.13.1s-.11.08-.13.1c-.33.25-.67.48-1.01.7l1.82,2.36c2.33-2.6,4.33-5.5,5.77-8.69.31-.69.25-1.45-.39-1.94-.56-.43-1.47-.44-1.97.12-1.66,1.87-2.97,4.02-3.68,6.43-.22.75.27,1.67,1.05,1.85s1.61-.24,1.85-1.05h0Z"/><path d="M746.12,220.65c1.2-.83,2.31-1.88,2.98-3.2.26-.52.45-1.05.32-1.64-.12-.53-.41-.93-.86-1.24-.61-.42-1.39-.53-2.11-.53-2.95-.01-5.65,1.28-8.18,2.67-.56.31-.89,1.08-.69,1.69.21.66.76,1.05,1.45,1.1,2.37.16,4.74.33,7.11.49.78.05,1.53-.73,1.5-1.5-.04-.86-.66-1.44-1.5-1.5-2.37-.16-4.74-.33-7.11-.49l.76,2.8c.64-.35,1.28-.7,1.94-1.01.73-.35,1.08-.51,1.93-.78.36-.11.73-.21,1.1-.29.2-.04.4-.08.6-.11-.26.04.24-.02.29-.03.38-.03.75-.04,1.12-.02.18.02.17.02-.01,0,.08.02.16.04.24.06-.18-.08-.19-.09-.05-.01-.18-.13-.33-.3-.44-.49v-.8c-.04.16-.02.16.04,0-.03.06-.06.12-.09.18-.06.12-.13.24-.2.35-.09.14-.18.27-.27.4.15-.21-.08.1-.12.14-.19.22-.4.43-.62.63-.11.1-.23.2-.34.3-.14.11-.16.13-.06.05-.08.06-.17.12-.26.18-.64.45-1,1.33-.54,2.05.41.64,1.36,1.02,2.05.54h0Z"/><path d="M757.89,216.88c-2.38-.47-4.77-.94-7.15-1.41l-.4,2.95c6.33.63,12.7.74,19.06.33l-1.3-2.26c-.1.2-.2.41-.3.61-.85,1.72,1.58,3.18,2.59,1.51.53-.87,1.06-1.74,1.59-2.62,1-1.65-1.59-3.16-2.59-1.51-.53.87-1.06,1.74-1.59,2.62l2.59,1.51c.1-.2.2-.41.3-.61.47-.94-.08-2.34-1.3-2.26-6.35.41-12.72.31-19.06-.33-1.67-.17-2.05,2.62-.4,2.95,2.38.47,4.77.94,7.15,1.41,1.89.37,2.69-2.52.8-2.89h0Z"/><path d="M741.93,209.32c.63-.03,1.25-.02,1.88.04.21,0,.4-.04.58-.13.19-.06.35-.16.48-.31.15-.14.25-.3.31-.48.09-.18.14-.37.13-.58-.02-.39-.14-.79-.44-1.06l-.3-.23c-.23-.14-.49-.2-.76-.2-.62-.06-1.25-.07-1.88-.04-.21,0-.4.04-.58.13-.19.06-.35.16-.48.31-.15.14-.25.3-.31.48-.09.18-.14.37-.13.58.02.39.14.79.44,1.06s.66.46,1.06.44h0Z"/><path d="M741.36,206.31c-.13,0-.13,0,0,.01.11,0,.21.03.3.09l-.76,2.8c1.14.07,2.28.14,3.41.21.74.04,1.38-.61,1.47-1.3s-.34-1.48-1.07-1.65c-.87-.2-1.75-.2-2.64-.15-.78.04-1.54.66-1.5,1.5.04.79.66,1.52,1.5,1.5,1.05-.03,2.08-.14,3.12-.28.33-.05.75-.4.9-.69.16-.3.22-.62.18-.96-.1-.77-.72-1.24-1.47-1.3-1.13-.09-2.26,0-3.39.09s-2.29.17-3.43.26c-.78.06-1.54.65-1.5,1.5.03.76.66,1.56,1.5,1.5,1.14-.09,2.29-.17,3.43-.26s2.26-.18,3.39-.09l-.4-2.95c-.41.06.19-.02-.05,0-.11.01-.21.03-.32.04-.22.02-.43.04-.65.06-.43.04-.87.06-1.3.07v3c.36-.02.72-.04,1.07-.03.17,0,.33.02.5.02.22,0-.24-.05-.03,0,.1.02.2.04.3.06l.4-2.95c-1.14-.07-2.28-.14-3.41-.21-.63-.04-1.31.49-1.45,1.1-.15.65.1,1.35.69,1.69.37.21.78.32,1.21.31.78-.03,1.54-.67,1.5-1.5s-.66-1.53-1.5-1.5h0Z"/><path d="M737.19,216.15c-.28.5-.55,1.01-.81,1.52h2.59c-.6-1.22-1.92-1.99-3.2-2.31-.73-.18-1.48.18-1.77.87-.27.64-.06,1.55.61,1.87l.38.18.13.06c.18.1.17.08-.03-.06l-.44-1.06v.09c.06-.25.13-.5.2-.76-.34.61-.41,1.38.02,1.97l1.69-2.2c-.31-.07.18.17-.04,0,.17.14.19.16.07.05-.08-.09-.08-.09,0,0,.08.1.08.09,0-.03-.03-.05-.06-.1-.08-.14-.06-.1-.12-.19-.18-.28-.37-.52-.86-.92-1.43-1.21-1.09-.56-2.23-.97-3.45-1.09-.78-.08-1.53.74-1.5,1.5.04.88.66,1.42,1.5,1.5.36.03-.2-.06.12.02.12.03.25.05.37.09.24.07.48.15.71.24.04.02.44.16.1.04.11.04.22.09.32.14.21.09.41.19.61.31l.09.06c.14.09.12.08-.05-.05l.08.07c.11.11.1.09-.03-.07.15.12.24.41.36.57.41.57.95,1.01,1.64,1.16.6.13,1.19-.04,1.58-.54.34-.44.47-1.18.12-1.67-.15,1.16-.1,1.39.13.7.03-.16.05-.32.06-.48,0-.42-.17-.79-.47-1.09s-.68-.44-1.05-.61l-1.16,2.74c.11.03.23.06.34.09.15.05.31.08.07,0,.22.07.42.23.62.34.09.06.06.04-.1-.08.04.03.08.06.12.1.07.07.14.13.21.21.03.03.06.07.09.11-.13-.17-.16-.21-.1-.12.03.09.11.18.16.27.49.98,2.1.97,2.59,0,.26-.51.53-1.02.81-1.52.38-.69.19-1.67-.54-2.05s-1.65-.19-2.05.54h0Z"/><path d="M607.48,208.93c.6,0,1.28.07,1.86-.09.7-.19,1.22-.8,1.23-1.53,0-.67-.4-1.23-1-1.48s-1.33-.17-1.97-.15c-.57.03-1.13.08-1.69.15-.41.05-.75.13-1.06.44-.26.26-.46.69-.44,1.06s.14.79.44,1.06c.27.25.68.49,1.06.44,1.86-.22,3.71-.45,5.56-.7.41-.05.75-.13,1.06-.44.26-.26.46-.69.44-1.06s-.14-.79-.44-1.06c-.27-.25-.68-.49-1.06-.44-1.85.24-3.71.47-5.56.7v3c.51-.07,1.02-.12,1.54-.14.25-.01.5-.02.75-.02.12,0,.25,0,.37,0,.07,0,.14,0,.21,0-.18,0-.34-.05-.49-.14l-.54-.54.03.04-.2-.76v.04c.07-.25.14-.5.2-.76l-.03.03.54-.54c.16-.09.33-.13.51-.13-.06,0-.12,0-.17,0-.12,0-.24,0-.36,0h-.78c-.78.01-1.54.69-1.5,1.51s.66,1.51,1.5,1.5h0Z"/><polygon class="cls-2" points=".5 300.5 27.66 300.62 .5 311.23 .5 300.5"/><path class="cls-2" d="M155.5,136.69c-.64,14.25-9.35,26.71-26.14,37.39-12.01,7.6-25.85,13.21-41.41,16.83l20.73-58.99h-43.62L.5,279.2V116.04l125.16.05c10,0,16.94.89,20.83,2.58,6.4,2.88,9.4,8.89,9.01,18.02Z"/><path class="cls-2" d="M7.05,85.2l-6.55-.26V.79l197.49,93.17c1.21.61-3.85-1.82-24.61-5.8-6.25-1.2-20.05-2.96-27.98-2.96H7.05Z"/><path class="cls-4" d="M310.94,155.53L50.08,285.98l29.69-71.4c30.23-6.06,56.33-14.9,78.29-26.61,32.79-17.33,47.33-45.44,50.15-55.9,2.03-7.52,2.51-16.02,3.14-22.34.25-2.51,2.16-5.8,4.4-4.67l95.18,50.5Z"/></g></svg>