<?xml version="1.0" encoding="UTF-8"?><svg id="Layer_2" xmlns="http://www.w3.org/2000/svg" viewBox="0 0 996.09 311.96"><defs><style>.cls-1,.cls-2,.cls-3{fill:#fff;}.cls-4{stroke:#4d4d4d;}.cls-4,.cls-2,.cls-3,.cls-5{stroke-miterlimit:10;}.cls-4,.cls-5{fill:#fbb03b;}.cls-2,.cls-3{stroke:#f7931e;}.cls-3{stroke-width:2px;}.cls-5{stroke:#333;}</style></defs><g id="Layer_1-2"><polygon class="cls-4" points=".5 300.5 27.66 300.62 .5 311.23 .5 300.5"/><path class="cls-4" d="M155.5,136.69c-.64,14.25-9.35,26.71-26.14,37.39-12.01,7.6-25.85,13.21-41.41,16.83l20.73-58.99h-43.62L.5,279.2V116.04l125.16.05c10,0,16.94.89,20.83,2.58,6.4,2.88,9.4,8.89,9.01,18.02Z"/><path class="cls-4" d="M7.05,85.2l-6.55-.26V.79l197.49,93.17c1.21.61-3.85-1.82-24.61-5.8-6.25-1.2-20.05-2.96-27.98-2.96H7.05Z"/><path class="cls-5" d="M310.94,155.53L50.08,285.98l29.69-71.4c30.23-6.06,56.33-14.9,78.29-26.61,32.79-17.33,47.33-45.44,50.15-55.9,2.03-7.52,2.51-16.02,3.14-22.34.25-2.51,2.16-5.8,4.4-4.67l95.18,50.5Z"/><path class="cls-2" d="M700,115.39l-.55,21.07c-.06.05-.03.07-.06.05-5.61-2.15-9.35-6.04-9.35-10.49s3.99-8.59,9.9-10.7c.03-.01.06.02.06.06Z"/><path class="cls-2" d="M725.85,124.06l-22.58-9.21s-.05-.1,0-.11c2.35-.53,8.96-.67,10.61-.53,7.81.68,11.84,3.55,14.52,10.78.32.87-1.38-.46-2.54-.93Z"/><path class="cls-2" d="M719.77,130.89c1.56-.62,8.9-4.31,8.31-3.36-3.54,5.64-9.94,12.03-18.64,12.03-2.62,0-4.97-.36-7.25-.96-.05-.01-.1-.41-.05-.43l17.64-7.28Z"/><path class="cls-3" d="M521.71,112.67c0,16.28-14.33,30.25-42.98,41.92-19.12,7.87-41.88,13.83-68.29,17.9-.01,0-.03.01-.03.03l-12.8,28.66s-.02.03-.04.03h-38.25s-.06-.05-.04-.09l38.31-84.54s.02-.03.04-.03h37.94s.06.05.04.09l-17.99,39.5s0,.09.05.09c13.55-2.42,25.57-6.18,36.06-11.29,14.64-7.21,22.24-15.59,22.81-25.17.35-6.16-2.28-10.2-7.88-12.13-3.36-1.16-9.42-1.73-18.18-1.73h-107.3s-.06-.06-.03-.1l16.3-20.68s.02-.02.03-.02h108.23c15.83,0,27.92,1.54,36.26,4.62,11.84,4.35,17.76,11.99,17.76,22.94Z"/><path class="cls-3" d="M621.51,185.71s.02,0,.03.01c11.14,10.87,8.41,13.92-5.39,13.92l-60.21-.73c-11.28,0-16.96-2.83-17.02-8.48,0-.04-.04-.07-.06-.05-7.63,6.78-16.99,10.18-28.1,10.18-8.2,0-14.86-1.98-19.97-5.94-5.11-3.96-7.67-9.13-7.67-15.51,0-11.5,5.61-20.57,16.82-27.23,10.16-6.05,22.74-9.08,37.73-9.08h59.93s.06.05.04.09l-19.68,42.73s0,.09.04.09h43.52ZM553.66,156.01h-23.12s-.03.01-.04.03l-7.34,19.19c-.42,1.21-.63,2.31-.63,3.3,0,4.78,5.94,7.18,17.84,7.18.02,0,.03-.01.04-.03l13.29-29.59s0-.09-.04-.09Z"/><path class="cls-3" d="M606.08,185.71l12.28-27.33s0-.09-.04-.09h-17.07s-.06-.05-.04-.09l6.56-13.09s.02-.02.03-.03c12.25-2.47,21.35-5.64,27.3-9.48,6.72-4.34,13.9-12.2,21.53-23.58,0-.01.02-.02.03-.02h20.39s.06.05.04.09l-14.74,32.91s0,.09.04.09h26.95s.06.05.04.09c-4.36,8.74-13.17,13.11-26.44,13.11h-6.91s-.03.01-.04.03l-13.09,29.59s0,.09.04.09h56.28s.06.05.04.09c-3.31,8.73-10.58,11.59-25.85,11.55h-55.08"/><path class="cls-3" d="M671.23,187.07l17.93-43.84s.02-.03.04-.03h38.04s.06.05.04.09l-19.36,42.73s0,.09.04.09l147.25-.19c7.71,0,24.24,12.58,15.42,12.97-4.53.2-138.38-.37-143.22-.37l-53.98,1.14"/><path class="cls-3" d="M870.64,198.88l-99.28-.16c-.75,0-1.41.34-1.63.84l-27.64,62.19c-.22.5-.89.84-1.64.84h-34.54c-1.16,0-1.99-.78-1.64-1.55l27.55-62.16"/><path class="cls-3" d="M740.29,186.06l5.71-16.16s.03-.07.04-.11c6.94-14.5,17.36-24.8,31.3-30.89,11.99-5.17,27.92-7.76,47.82-7.76,26.27,0,39.41,6.74,39.41,20.21,0,5.45-2.84,10.11-8.52,13.99-5.67,3.87-12.29,5.82-19.86,5.82s-14.05-1.93-19.44-5.78c-5.39-3.84-8.09-8.52-8.09-14.03,0-1.44.22-2.9.66-4.37.21-.7-.56-1.4-1.59-1.4,0,0-.01,0-.02,0-3.65,0-7.57,1.9-11.77,5.7-3.86,3.46-6.87,7.45-9.04,11.96l-11.28,21.82c-.4.78.44,1.6,1.64,1.59l80.28-.73c.6,0,1.16.21,1.48.56"/><path class="cls-3" d="M855.21,186.68c0-1.54-.25-2.58.45-4.18l18.27-39.66s.02-.03.04-.03h38.04s.06.05.04.09l-19.57,42.73s0,.09.04.09h21.23s.03-.01.04-.03l19.31-42.85s.02-.03.04-.03h37.83s.06.05.04.09l-19.26,42.73s0,.09.04.09h43.24s.06.05.04.09c-4.15,8.74-11.87,13.11-23.18,13.11h-25.62s-.03.01-.04.03c-6.09,12.97-12.5,22.59-19.22,28.85-9.39,8.69-21.06,13.04-35,13.04-8.76,0-15.52-2.01-20.28-6.02-4.14-3.52-6.2-8.06-6.2-13.61,0-4.4,1.21-8.66,3.63-12.79,2.38-4.06,5.48-7.19,9.32-9.38.04-.03.03-.11-.02-.11h-7.78M907.11,201.24s0-.09-.04-.09c-4.59.02-8.86,2.07-12.79,6.15-3.96,4.1-5.94,8.18-5.94,12.25,0,3.62,2.02,6.53,6.06,8.73.02.01.05,0,.06-.02l12.65-27.01Z"/><path class="cls-1" d="M762.32,186.69c-3.08,0-19.45-2.49-19.79.82,2.97,2.06,8.48,1.4,11.92,1.4,2.32,0,9.16,1.16,10.89-.54-.52-.84-1.56-1.31-2-2.19,2.42-.85,6.61-.15,9.14.19-1.59-.17-3.05-.34-4.65-.35.38-.04.59.11.96.17"/><path class="cls-1" d="M762.32,185.19c-3.86-.03-7.72-.72-11.59-.86-2.07-.08-4.18-.1-6.22.27-1.37.25-3.18.91-3.43,2.5-.11.7.08,1.3.69,1.69,3.96,2.59,9.02,1.38,13.44,1.63,1.94.11,3.88.35,5.83.36,1.84,0,3.92-.09,5.37-1.37.46-.41.6-1.31.23-1.82-.57-.81-1.5-1.36-2-2.19l-.9,2.2c2.63-.84,5.68-.17,8.34.19l.4-2.95c-1.55-.16-3.09-.32-4.65-.35-1.93-.04-1.93,2.94,0,3,.19.02.38.06.56.12,1.87.49,2.67-2.4.8-2.89-.46-.12-.88-.21-1.35-.23v3c1.56.03,3.1.19,4.65.35,1.66.18,2.07-2.72.4-2.95-3.2-.44-6.77-1.2-9.93-.19-.91.29-1.41,1.34-.9,2.2s1.42,1.38,2,2.19l.23-1.82c-.84.74-3.06.51-4.17.47-1.71-.06-3.41-.27-5.12-.35-3.76-.17-8.36.98-11.72-1.21l.69,1.69c.04-.24-.06-.03-.02-.02-.11-.03-.15.09.08-.03.29-.15-.16.05.14-.07.61-.23,1.28-.33,1.91-.39,1.98-.19,4-.11,5.98,0,3.41.19,6.83.77,10.25.8,1.93.01,1.93-2.99,0-3h0Z"/><path class="cls-1" d="M772.47,188.65c.15.03.3.08.44.14l-.36-.15c.06.02.11.05.17.08l-.3-2.36s-.05.05-.07.08l.3-.23s-.05.03-.07.04l.36-.15s-.05.02-.08.02l.4-.05s-.08,0-.12,0l.4.05s-.06,0-.08-.02c-.2-.06-.4-.07-.6-.03-.2,0-.39.07-.56.18-.17.09-.32.22-.42.39-.13.14-.22.31-.27.51l-.05.4c0,.27.07.52.2.76l.23.3c.19.19.41.31.66.39.02,0,.05.01.08.02.15.02.31.06.46.06.02,0,.04,0,.06,0,.15-.02.31-.02.45-.06s.28-.11.41-.17c.02,0,.03-.02.05-.03.12-.08.24-.17.35-.27.02-.02.03-.03.04-.05.19-.19.31-.41.39-.66.06-.2.07-.4.03-.6,0-.2-.07-.39-.18-.56-.13-.23-.31-.4-.54-.54-.05-.03-.1-.05-.15-.07-.16-.07-.33-.15-.5-.21-.1-.04-.21-.07-.31-.09-.2-.06-.4-.07-.6-.03-.2,0-.39.07-.56.18-.17.09-.32.22-.42.39-.13.14-.22.31-.27.51l-.05.4c0,.27.07.52.2.76l.23.3c.19.19.41.31.66.39h0Z"/><path class="cls-1" d="M734.06,197.58c3.13,1.01,6.28,1.23,9.54,1.55,2.91.28,6.11.72,8.97-.05-2.47-1.77-7.03-2.45-10.06-2.35,8.29,1.72,16.85,2.18,25.11,1.13-.2-1.32-.68-2.87-.88-4.36"/><path class="cls-1" d="M733.66,199.03c3.15.98,6.43,1.26,9.7,1.58s6.42.71,9.6-.08c1.33-.33,1.38-2.05.36-2.74-3.04-2.07-7.21-2.64-10.81-2.56-1.63.04-2.11,2.6-.4,2.95,8.39,1.72,17,2.23,25.51,1.18,1.03-.13,1.63-.85,1.45-1.9-.25-1.46-.66-2.89-.88-4.36-.29-1.9-3.18-1.09-2.89.8.22,1.47.63,2.9.88,4.36l1.45-1.9c-8.24,1.02-16.58.59-24.72-1.08l-.4,2.95c3.11-.07,6.67.36,9.3,2.15l.36-2.74c-2.89.72-5.88.26-8.8-.03s-6-.57-8.91-1.47c-1.85-.57-2.64,2.32-.8,2.89h0Z"/><path class="cls-1" d="M734.4,198.6c-.24-.39-.92-1.19-1.34-1.39.14.04.24.1.38.18-.17.08-.33.29-.46.36,1.73.53,4.25.28,6.01-.09"/><path class="cls-1" d="M735.7,197.85c-.45-.71-1.12-1.53-1.88-1.93l-1.16,2.74c.15.05.11.03-.13-.06.05.03.1.06.16.09v-2.59c-.17.1-.33.23-.48.36-.1.09-.37.25.02,0-.51.33-.8.89-.72,1.49s.5,1.08,1.07,1.25c2.17.65,4.63.36,6.81-.09.77-.16,1.29-1.11,1.05-1.85-.26-.81-1.02-1.22-1.85-1.05-.23.05-.45.09-.68.13-.12.02-.24.04-.36.06-.06,0-.12.02-.19.03.24-.03.28-.04.12-.02-.5.06-1,.11-1.51.13s-1,.02-1.5-.03c-.12,0-.25-.04-.37-.04.25.03.29.04.13.02-.06,0-.12-.02-.18-.03-.23-.04-.45-.1-.67-.16l.36,2.74c.16-.1.31-.22.46-.35.27-.24-.23.13,0-.01.96-.57.98-2.02,0-2.59-.23-.14-.48-.25-.74-.33-.71-.23-1.49.21-1.77.87s-.05,1.52.61,1.87c.05.03.1.06.15.09.22.12-.27-.24-.08-.06.13.12.25.24.37.37.11.12.21.25.31.37.11.13-.23-.33-.06-.08.04.06.08.11.11.17.42.66,1.36.99,2.05.54s.99-1.34.54-2.05h0Z"/></g></svg>