<?xml version="1.0" encoding="UTF-8"?><svg id="Layer_2" xmlns="http://www.w3.org/2000/svg" viewBox="0 0 513.59 513.52"><defs><style>.cls-1{stroke:#4d4d4d;}.cls-1,.cls-2{fill:#fbb03b;stroke-miterlimit:10;}.cls-2{stroke:#333;}</style></defs><g id="Layer_1-2"><polygon class="cls-1" points=".5 495.1 45.29 495.29 .5 512.79 .5 495.1"/><path class="cls-1" d="M256.13,224.93c-1.06,23.5-15.43,44.06-43.12,61.67-19.81,12.53-42.63,21.78-68.29,27.76l34.19-97.29h-71.95L.5,459.97V190.86l206.42.08c16.48,0,27.93,1.47,34.35,4.26,10.56,4.75,15.51,14.66,14.86,29.73Z"/><path class="cls-1" d="M11.3,140.01l-10.8-.44V.79l325.72,153.66c2,1-6.35-2.99-40.59-9.56-10.31-1.98-33.07-4.88-46.14-4.88H11.3Z"/><path class="cls-2" d="M512.5,256L82.27,471.14l48.97-117.76c49.86-9.99,92.9-24.57,129.12-43.89,54.08-28.58,78.05-74.95,82.72-92.2,3.35-12.4,4.15-26.42,5.18-36.85.41-4.14,3.56-9.56,7.26-7.71l156.99,83.28Z"/></g></svg>