<?xml version="1.0" encoding="UTF-8"?><svg id="Layer_2" xmlns="http://www.w3.org/2000/svg" viewBox="0 0 304.39 603"><defs><style>.cls-1{fill:none;stroke:#f7931e;}.cls-1,.cls-2,.cls-3{stroke-miterlimit:10;}.cls-2{stroke:#4d4d4d;}.cls-2,.cls-3{fill:#fbb03b;}.cls-3{stroke:#333;}</style></defs><g id="Layer_1-2"><rect class="cls-1" x=".68" y=".5" width="303" height="602"/><polygon class="cls-2" points=".5 454.1 26.99 454.22 .5 464.84 .5 454.1"/><path class="cls-2" d="M151.7,290.14c-.62,14.26-9.13,26.74-25.5,37.42-11.72,7.6-25.22,13.22-40.39,16.85l20.22-59.05h-42.55L.5,432.78v-163.32l122.09.05c9.75,0,16.52.89,20.32,2.58,6.24,2.88,9.17,8.9,8.79,18.04Z"/><path class="cls-2" d="M6.89,238.6l-6.39-.26v-84.23l192.65,93.26c1.18.61-3.75-1.82-24.01-5.8-6.1-1.2-19.56-2.96-27.29-2.96H6.89Z"/><path class="cls-3" d="M303.32,309L48.87,439.56l28.96-71.47c29.49-6.06,54.95-14.91,76.37-26.64,31.99-17.35,46.16-45.49,48.92-55.95,1.98-7.53,2.45-16.03,3.07-22.37.24-2.51,2.11-5.8,4.29-4.68l92.85,50.54Z"/></g></svg>