<?xml version="1.0" encoding="UTF-8"?><svg id="Layer_2" xmlns="http://www.w3.org/2000/svg" viewBox="0 0 930.44 749"><defs><style>.cls-1{fill:#fff;}.cls-2{fill:none;stroke:#f7931e;}.cls-2,.cls-3,.cls-4{stroke-miterlimit:10;}.cls-3{stroke:#4d4d4d;}.cls-3,.cls-4{fill:#fbb03b;}.cls-5{fill:#f7931e;}.cls-4{stroke:#333;}</style></defs><g id="Layer_1-2"><path class="cls-1" d="M668.11,539.73s-.04.02-.08.03v-.06l.08.03Z"/><path class="cls-5" d="M668.03,539.7v.06s.06-.02.08-.03l-.08-.03h0Z"/><rect class="cls-2" x=".5" y=".5" width="929.44" height="748"/><polygon class="cls-3" points="264.55 562.18 299.77 562.32 264.55 575.52 264.55 562.18"/><path class="cls-3" d="M465.55,358.45c-.83,17.72-12.13,33.22-33.91,46.5-15.58,9.45-33.52,16.43-53.7,20.94l26.88-73.37h-56.57l-83.71,183.17v-202.93l162.31.06c12.96,0,21.96,1.11,27.01,3.21,8.3,3.58,12.2,11.05,11.68,22.42Z"/><path class="cls-3" d="M273.04,294.41l-8.49-.33v-104.66l256.11,115.87c1.57.75-4.99-2.26-31.92-7.21-8.11-1.49-26-3.68-36.28-3.68h-179.42Z"/><path class="cls-4" d="M667.13,381.88l-338.28,162.23,38.5-88.8c39.2-7.53,73.05-18.53,101.52-33.1,42.52-21.55,61.37-56.52,65.04-69.52,2.64-9.35,3.26-19.92,4.08-27.79.32-3.12,2.8-7.21,5.71-5.81l123.44,62.8Z"/></g></svg>