<?xml version="1.0" encoding="UTF-8"?><svg id="Layer_2" xmlns="http://www.w3.org/2000/svg" viewBox="0 0 3841 2161"><defs><style>.cls-1{fill:none;}.cls-1,.cls-2,.cls-3,.cls-4,.cls-5{stroke-miterlimit:10;}.cls-1,.cls-2,.cls-4{stroke:#f7931e;}.cls-3{stroke:#4d4d4d;}.cls-3,.cls-5{fill:#fbb03b;}.cls-4{stroke-width:2px;}.cls-6{fill:#f7931e;}.cls-5{stroke:#333;}</style></defs><g id="Layer_1-2"><path class="cls-2" d="M2588.16,1019.72l-1.86,45.98c-.2.12-.11.14-.2.12-19.05-4.69-31.77-13.18-31.77-22.89s13.57-18.75,33.63-23.34c.1-.02.21.04.2.13Z"/><path class="cls-2" d="M2675.99,1038.64l-76.72-20.1c-.15-.04-.18-.23-.02-.25,7.99-1.16,30.44-1.46,36.06-1.15,26.54,1.48,40.24,7.75,49.32,23.53,1.09,1.89-4.69-1-8.63-2.04Z"/><path class="cls-2" d="M2655.33,1053.53c5.29-1.35,30.24-9.4,28.22-7.34-12.03,12.3-33.79,26.26-63.35,26.26-8.9,0-16.9-.79-24.63-2.09-.16-.03-.34-.9-.19-.94l59.94-15.89Z"/><path d="M2597.26,1017.21c-.07.03-.15.05-.26.07v-.13l.26.07Z"/><path class="cls-6" d="M2597,1017.15v.13c.11-.02.19-.03.26-.07l-.26-.07h0Z"/><path class="cls-4" d="M1982.4,1013.78c0,35.53-48.69,66.02-146.04,91.47-64.97,17.16-142.31,30.18-232.02,39.06-.05,0-.09.03-.11.06l-43.48,62.54s-.08.06-.13.06h-129.98c-.12,0-.19-.11-.13-.19l130.15-184.48s.08-.06.13-.06h128.9c.12,0,.19.11.13.19l-61.12,86.18c-.07.09.03.21.16.19,46.05-5.28,86.89-13.49,122.51-24.63,49.75-15.72,75.57-34.03,77.48-54.92,1.19-13.44-7.74-22.26-26.78-26.47-11.43-2.52-32.02-3.78-61.77-3.78h-364.55c-.14,0-.21-.14-.11-.22l55.39-45.12s.07-.04.11-.04h367.72c53.79,0,94.86,3.36,123.19,10.08,40.22,9.48,60.35,26.17,60.35,50.05Z"/><path class="cls-4" d="M2321.49,1173.17s.07.01.09.03c37.84,23.71,28.58,30.37-18.3,30.37l-204.56-1.59c-38.34,0-57.62-6.17-57.84-18.5,0-.1-.12-.15-.22-.1-25.91,14.8-57.74,22.2-95.48,22.2-27.85,0-50.47-4.32-67.84-12.96-17.37-8.64-26.07-19.92-26.07-33.85,0-25.09,19.04-44.89,57.13-59.42,34.51-13.2,77.25-19.81,128.19-19.81h203.62c.12,0,.19.11.13.19l-66.85,93.24c-.06.08.01.19.13.19h147.86ZM2090.97,1108.35h-78.55c-.06,0-.11.03-.14.07l-24.95,41.88c-1.43,2.64-2.14,5.04-2.14,7.2,0,10.44,20.2,15.66,60.61,15.66.06,0,.11-.02.14-.06l45.17-64.56c.06-.08-.01-.19-.13-.19Z"/><path class="cls-4" d="M2265.57,1178.17l45.21-64.63c.06-.08-.01-.19-.13-.19h-58.01c-.12,0-.19-.11-.13-.2l22.31-28.56s.06-.05.11-.06c41.62-5.4,72.55-12.3,92.77-20.7,22.84-9.47,47.22-26.63,73.15-51.45.03-.03.07-.04.12-.04h69.29c.12,0,.19.11.13.19l-50.08,71.82c-.06.08.01.19.13.19h91.57c.12,0,.2.12.13.21-14.82,19.07-44.76,28.6-89.82,28.6h-23.48c-.05,0-.11.02-.13.06l-44.46,64.56c-.06.08.02.19.13.19h191.23c.12,0,.19.11.14.19-11.25,19.05-35.94,25.29-87.83,25.21h-187.15"/><path class="cls-4" d="M2490.44,1176.12l60.91-95.66s.08-.07.14-.07h129.26c.12,0,.19.11.13.19l-65.79,93.24c-.06.08.01.19.13.19l500.3-.42c26.2,0,82.35,27.44,52.4,28.3-15.4.44-470.17-.81-486.59-.81l-183.41,2.48"/><path class="cls-4" d="M3167.92,1201.9l-337.32-.35c-2.54.01-4.78.75-5.53,1.83l-93.9,135.7c-.75,1.09-3.02,1.83-5.58,1.83h-117.35c-3.94,0-6.75-1.7-5.57-3.38l93.62-135.64"/><path class="cls-4" d="M2722.5,1178.6l21.98-39.93c.04-.08.1-.16.15-.23,23.58-31.63,59-54.11,106.33-67.41,40.72-11.29,94.85-16.93,162.48-16.93,89.27,0,133.89,14.71,133.89,44.11,0,11.88-9.66,22.07-28.93,30.53-19.28,8.46-41.77,12.7-67.49,12.7s-47.72-4.21-66.06-12.62c-18.3-8.39-27.47-18.59-27.47-30.61,0-3.15.76-6.32,2.25-9.54.71-1.53-1.89-3.05-5.4-3.06-.02,0-.05,0-.07,0-12.39,0-25.71,4.14-39.98,12.43-13.1,7.56-23.36,16.26-30.73,26.1l-38.34,47.61c-1.37,1.7,1.5,3.5,5.57,3.47l272.78-1.6c2.04-.01,3.95.45,5.03,1.22"/><path class="cls-4" d="M3115.52,1175.27c0-3.36-.85-5.64,1.53-9.12l62.09-86.54s.08-.06.13-.06h129.26c.12,0,.19.11.13.19l-66.5,93.24c-.06.08.01.19.13.19h72.13c.05,0,.1-.02.13-.06l65.61-93.5s.08-.06.13-.06h128.55c.12,0,.19.11.13.19l-65.43,93.24c-.06.08.01.19.13.19h146.92c.12,0,.2.12.13.2-14.09,19.07-40.34,28.61-78.76,28.61h-87.04c-.05,0-.1.02-.13.06-20.7,28.3-42.46,49.28-65.3,62.96-31.9,18.97-71.54,28.45-118.91,28.45-29.76,0-52.73-4.38-68.92-13.14-14.05-7.68-21.07-17.59-21.07-29.71,0-9.61,4.11-18.91,12.32-27.91,8.08-8.86,18.64-15.69,31.68-20.47.15-.06.11-.23-.05-.23h-26.45M3291.87,1207.04c.06-.09-.02-.2-.14-.2-15.6.05-30.09,4.52-43.46,13.41-13.45,8.94-20.17,17.85-20.17,26.74,0,7.9,6.86,14.24,20.58,19.04.07.02.16,0,.2-.05l42.99-58.94Z"/><path d="M2748.03,1203.85c2.28-4.96,6.27-8.88,10.64-12.04l-2.05-2.05c-4.89,6.99-11.35,12.81-18.26,17.77-1.6,1.14-.25,3.34,1.51,2.59,7.71-3.25,15.62-7.81,20.39-14.91,1.08-1.61-1.52-3.11-2.59-1.51-4.46,6.64-12.13,10.8-19.31,13.83l1.51,2.59c7.35-5.27,14.13-11.4,19.34-18.84.84-1.2-.85-2.92-2.05-2.05-4.77,3.45-9.23,7.69-11.72,13.12-.34.74-.2,1.61.54,2.05.64.38,1.72.2,2.05-.54h0Z"/><path d="M2735.22,1205.33c3.28-1.47,6.99-3.52,9.03-6.61,2.82-4.27-4.69-4.54-7-4.5-8.54.16-16.69,2.61-24.69,5.42-1.58.56-1.34,2.87.4,2.95,8.06.36,16.11.72,24.17,1.08,1.93.09,1.93-2.91,0-3-8.06-.36-16.11-.72-24.17-1.08l.4,2.95c6.47-2.28,13.06-4.42,19.93-5.08,1.83-.18,3.69-.28,5.53-.23.75.02,1.5.06,2.23.21.27.06.55.18.82.21l.22.12c-.19-.62-.39-.74-.59-.36-.47.22-1.03,1.11-1.43,1.47-.52.46-1.06.88-1.63,1.27-1.49,1.02-3.08,1.85-4.73,2.59-1.76.79-.24,3.37,1.51,2.59h0Z"/><path d="M2775.68,1200.3c-8.1-1.03-16.2-2.05-24.3-3.08v3c16.73,1.08,33.51,1.47,50.27,1.16,4.83-.09,9.65-.24,14.47-.45l-1.3-2.26c-.34.45-.69.89-1.03,1.34-1.05,1.36,1.2,3.04,2.36,1.82,1.8-1.9,3.6-3.81,5.4-5.71,1.33-1.4-.79-3.53-2.12-2.12-1.8,1.9-3.6,3.81-5.4,5.71l2.36,1.82c.34-.45.69-.89,1.03-1.34.7-.91-.25-2.3-1.3-2.26-16.77.71-33.57.74-50.34.05-4.8-.2-9.61-.45-14.41-.76-1.97-.13-1.86,2.76,0,3,8.1,1.03,16.2,2.05,24.3,3.08,1.91.24,1.89-2.76,0-3h0Z"/><path d="M2722.79,1180.38c2.13-.07,4.26-.05,6.38.08.78.05,1.53-.72,1.5-1.5-.04-.85-.66-1.45-1.5-1.5-2.13-.13-4.25-.16-6.38-.08-.78.03-1.54.67-1.5,1.5s.66,1.53,1.5,1.5h0Z"/><path d="M2720.87,1177.36c-.43,0-.72-.03-1.12-.17l-.4,2.95c3.87.15,7.73.3,11.6.45,1.65.06,2.09-2.69.4-2.95-2.67-.4-5.33-.36-8.02-.27-1.92.07-1.94,3.03,0,3,3.08-.06,6.16-.22,9.24-.5,1.9-.18,1.95-2.9,0-3-3.84-.2-7.67,0-11.51.19s-7.77.38-11.65.57c-1.92.09-1.93,3.09,0,3,3.88-.19,7.77-.38,11.65-.57s7.67-.4,11.51-.19v-3c-3.07.28-6.15.45-9.24.5v3c2.4-.08,4.84-.19,7.22.16l.4-2.95c-3.87-.15-7.73-.3-11.6-.45-1.77-.07-1.92,2.4-.4,2.95.62.22,1.26.29,1.92.28,1.93-.02,1.93-3.02,0-3h0Z"/><path d="M2710.03,1197.65c-.94,1.09-1.85,2.19-2.74,3.32h2.12c-1.93-2.47-5.55-3.44-8.49-3.92-1.87-.3-2.68,2.31-.8,2.89.68.21,1.69.33,2.27.75l-.69-1.69.2-.29c-.14.12-.23.27-.29.44-.15.27-.26.59-.26.9-.01.64.34,1.17.77,1.6l1.46-2.51c-.67-.09-1.33-.23-1.88-.65s-.92-1.01-1.44-1.44c-1.12-.93-2.55-1.42-3.92-1.85-3-.94-6.08-1.67-9.22-1.87-1.93-.12-1.92,2.88,0,3,3,.19,5.98.95,8.83,1.89.62.2,1.23.42,1.8.74.64.35,1.03.87,1.54,1.37.97.96,2.16,1.52,3.5,1.71s2.63-1.35,1.46-2.51l.05.13-.15,1.16c.15-.35.4-.61.46-1.01.12-.73-.1-1.26-.69-1.69-.81-.59-2.04-.76-2.98-1.05l-.8,2.89c2.47.4,5.54,1.05,7.17,3.15.46.59,1.66.58,2.12,0,.89-1.13,1.8-2.23,2.74-3.32,1.26-1.46-.86-3.59-2.12-2.12h0Z"/><path d="M2265.97,1179.53h2.83c.83-.02,1.71.06,2.53-.13,1.75-.42,2.15-2.7.27-3.29-.73-.23-1.55-.16-2.3-.16-.97,0-1.94.01-2.9.04-1.92.05-3.84.17-5.76.33s-1.93,3.15,0,3c6.3-.48,12.6-.99,18.9-1.52,1.91-.16,1.93-3.16,0-3-6.3.53-12.6,1.04-18.9,1.52v3c1.8-.15,3.59-.26,5.4-.32.85-.03,1.69-.04,2.54-.05.71,0,1.64-.16,2.32.09l-.66-.39.09.09-.44-1.06v.09c.14-.35.29-.71.44-1.06l-.09.08.66-.39c-.63.25-1.42.12-2.08.12h-2.83c-1.93.02-1.93,3.02,0,3.01h0Z"/><rect class="cls-1" x=".5" y=".5" width="3840" height="2160"/><polygon class="cls-3" points="156.75 1536.23 242.35 1536.57 156.75 1568.02 156.75 1536.23"/><path class="cls-3" d="M645.23,1050.7c-2.02,42.24-29.48,79.18-82.39,110.82-37.86,22.52-81.46,39.15-130.5,49.89l65.33-174.84h-137.48l-203.43,436.52v-483.62l394.44.15c31.5,0,53.38,2.65,65.64,7.65,20.17,8.54,29.64,26.34,28.4,53.42Z"/><path class="cls-3" d="M177.39,898.08l-20.64-.78v-249.41l622.39,276.15c3.82,1.8-12.13-5.38-77.56-17.18-19.71-3.55-63.19-8.77-88.16-8.77H177.39Z"/><path class="cls-5" d="M1135.09,1106.54l-822.08,386.63,93.57-211.64c95.27-17.95,177.51-44.15,246.72-78.89,103.34-51.36,149.14-134.69,158.06-165.69,6.41-22.28,7.92-47.48,9.9-66.23.79-7.44,6.8-17.18,13.87-13.86l299.97,149.67Z"/></g></svg>